# Blender 4.3.0
# www.blender.org
mtllib intersection.mtl
o Intersection
v -2.500000 0.000000 5.000000
v 5.000000 0.000001 2.500000
v 2.500000 0.000000 5.000000
v 5.000000 0.000000 -2.500000
v -2.500000 -0.000000 -5.000000
v -5.000000 -0.000000 2.500000
v 2.500000 -0.000000 -5.000000
v -5.000000 -0.000001 -2.500000
v -2.500000 0.000000 4.021227
v -4.021227 0.000000 2.500000
v -2.581170 0.000000 3.553227
v -2.794210 0.000000 3.129974
v -3.553227 0.000000 2.581170
v -3.129974 0.000000 2.794210
v -4.021227 -0.000000 -2.500000
v -2.500000 -0.000000 -4.021226
v -3.553227 -0.000000 -2.581169
v -3.129974 -0.000000 -2.794209
v -2.581170 -0.000000 -3.553226
v -2.794210 -0.000000 -3.129973
v 4.021227 0.000000 2.500000
v 2.500000 0.000000 4.021226
v 3.553227 0.000000 2.581169
v 3.129974 0.000000 2.794209
v 2.581170 0.000000 3.553226
v 2.794210 0.000000 3.129973
v 2.500000 -0.000000 -4.021227
v 4.021227 -0.000000 -2.500000
v 2.581170 -0.000000 -3.553227
v 2.794210 -0.000000 -3.129974
v 3.553227 -0.000000 -2.581170
v 3.129974 -0.000000 -2.794210
v 3.634287 0.000000 -0.061174
v 2.917573 0.000000 0.788557
v 2.343351 0.000000 1.346814
v 1.838283 0.000000 1.864520
v 1.372575 0.000000 2.383060
v 0.870798 0.000000 2.899345
v 0.061173 0.000000 3.634286
v 2.899346 0.000000 -0.870798
v 2.205274 0.000000 -0.028062
v 1.632473 0.000000 0.568510
v 1.106929 0.000000 1.119970
v 0.593982 0.000000 1.662767
v 0.028061 0.000000 2.205274
v -0.788557 0.000000 2.917573
v 2.383060 -0.000000 -1.372575
v 1.662768 0.000000 -0.593982
v 1.080617 0.000000 -0.012785
v 0.544177 0.000000 0.536643
v 0.012785 0.000000 1.080617
v -0.568510 0.000000 1.632473
v -1.346815 0.000000 2.343351
v 1.864521 -0.000000 -1.838284
v 1.119970 -0.000000 -1.106929
v 0.536643 -0.000000 -0.544176
v 0.000000 0.000000 -0.000000
v -0.536643 0.000000 0.544176
v -1.119970 0.000000 1.106929
v -1.864521 0.000000 1.838284
v 1.346815 -0.000000 -2.343351
v 0.568510 -0.000000 -1.632473
v -0.012785 -0.000000 -1.080617
v -0.544177 -0.000000 -0.536643
v -1.080617 -0.000000 0.012785
v -1.662768 -0.000000 0.593982
v -2.383060 0.000000 1.372575
v 0.788558 -0.000000 -2.917573
v -0.028061 -0.000000 -2.205274
v -0.593982 -0.000000 -1.662767
v -1.106929 -0.000000 -1.119970
v -1.632473 -0.000000 -0.568510
v -2.205274 -0.000000 0.028062
v -2.899346 -0.000000 0.870798
v -0.061173 -0.000000 -3.634287
v -0.870798 -0.000000 -2.899346
v -1.372575 -0.000000 -2.383060
v -1.838284 -0.000000 -1.864521
v -2.343351 -0.000000 -1.346814
v -2.917573 -0.000000 -0.788557
v -3.634287 -0.000000 0.061174
vn -0.0000 1.0000 -0.0000
vt -0.149915 1.799830
vt 0.515903 1.444791
vt -0.149915 1.545382
vt 1.149915 1.545382
vt 0.726378 1.253731
vt 1.171017 1.423718
vt 0.856823 1.119515
vt 1.226400 1.313687
vt 0.977891 0.984712
vt 1.313687 1.226400
vt 1.109192 0.850126
vt 1.423718 1.171016
vt 1.258470 0.704998
vt 1.545382 1.149915
vt 1.444791 0.484097
vt 1.799830 1.149915
vt 1.799830 -0.149916
vt 0.295002 1.258470
vt -0.171017 1.423718
vt 0.507295 1.073296
vt 0.654415 0.932263
vt 0.787764 0.791154
vt 0.924387 0.647793
vt 1.073296 0.492705
vt 1.253731 0.273622
vt 1.545382 -0.149916
vt 0.149874 1.109192
vt -0.226400 1.313687
vt 0.352207 0.924387
vt 0.503324 0.780923
vt 0.641467 0.639509
vt 0.780923 0.496676
vt 0.932263 0.345585
vt 1.119515 0.143177
vt 1.423718 -0.171017
vt 0.015288 0.977891
vt -0.313687 1.226400
vt 0.208846 0.787764
vt 0.360491 0.641467
vt 0.500000 0.500000
vt 0.639509 0.358532
vt 0.791154 0.212236
vt 0.984712 0.022108
vt 1.313687 -0.226400
vt -0.119515 0.856823
vt -0.423719 1.171017
vt 0.067737 0.654415
vt 0.219076 0.503323
vt 0.358532 0.360491
vt 0.496676 0.219076
vt 0.647793 0.075612
vt 0.850126 -0.109192
vt 1.226399 -0.313687
vt -0.253732 0.726378
vt -0.545383 1.149915
vt -0.073297 0.507295
vt 0.075612 0.352206
vt 0.212236 0.208846
vt 0.345585 0.067737
vt 0.492705 -0.073297
vt 0.704998 -0.258470
vt 1.171016 -0.423719
vt -0.444791 0.515903
vt -0.799831 1.149915
vt -0.258470 0.295002
vt -0.109192 0.149874
vt 0.022109 0.015288
vt 0.143177 -0.119515
vt 0.273622 -0.253732
vt 0.484097 -0.444792
vt 1.149915 -0.545383
vt -0.799830 -0.149915
vt -0.545383 -0.149915
vt -0.423719 -0.171017
vt -0.313687 -0.226400
vt -0.226400 -0.313687
vt -0.171017 -0.423719
vt -0.149915 -0.545383
vt -0.149915 -0.799831
vt 1.149915 -0.799831
vt 1.149915 1.799830
s 0
g Intersection_Asphalt
usemtl Asphalt
f 2/1/1 33/2/1 21/3/1
f 33/2/1 28/4/1 40/5/1
f 40/5/1 31/6/1 47/7/1
f 47/7/1 32/8/1 54/9/1
f 54/9/1 30/10/1 61/11/1
f 61/11/1 29/12/1 68/13/1
f 68/13/1 27/14/1 75/15/1
f 75/15/1 7/16/1 5/17/1
f 21/3/1 34/18/1 23/19/1
f 33/2/1 41/20/1 34/18/1
f 40/5/1 48/21/1 41/20/1
f 48/21/1 54/9/1 55/22/1
f 55/22/1 61/11/1 62/23/1
f 62/23/1 68/13/1 69/24/1
f 69/24/1 75/15/1 76/25/1
f 75/15/1 16/26/1 76/25/1
f 23/19/1 35/27/1 24/28/1
f 34/18/1 42/29/1 35/27/1
f 41/20/1 49/30/1 42/29/1
f 49/30/1 55/22/1 56/31/1
f 56/31/1 62/23/1 63/32/1
f 63/32/1 69/24/1 70/33/1
f 70/33/1 76/25/1 77/34/1
f 76/25/1 19/35/1 77/34/1
f 24/28/1 36/36/1 26/37/1
f 35/27/1 43/38/1 36/36/1
f 42/29/1 50/39/1 43/38/1
f 49/30/1 57/40/1 50/39/1
f 57/40/1 63/32/1 64/41/1
f 63/32/1 71/42/1 64/41/1
f 70/33/1 78/43/1 71/42/1
f 77/34/1 20/44/1 78/43/1
f 26/37/1 37/45/1 25/46/1
f 36/36/1 44/47/1 37/45/1
f 43/38/1 51/48/1 44/47/1
f 51/48/1 57/40/1 58/49/1
f 57/40/1 65/50/1 58/49/1
f 64/41/1 72/51/1 65/50/1
f 71/42/1 79/52/1 72/51/1
f 78/43/1 18/53/1 79/52/1
f 25/46/1 38/54/1 22/55/1
f 38/54/1 44/47/1 45/56/1
f 45/56/1 51/48/1 52/57/1
f 52/57/1 58/49/1 59/58/1
f 59/58/1 65/50/1 66/59/1
f 65/50/1 73/60/1 66/59/1
f 72/51/1 80/61/1 73/60/1
f 79/52/1 17/62/1 80/61/1
f 22/55/1 39/63/1 3/64/1
f 39/63/1 45/56/1 46/65/1
f 46/65/1 52/57/1 53/66/1
f 53/66/1 59/58/1 60/67/1
f 60/67/1 66/59/1 67/68/1
f 66/59/1 74/69/1 67/68/1
f 73/60/1 81/70/1 74/69/1
f 80/61/1 15/71/1 81/70/1
f 1/72/1 39/63/1 9/73/1
f 9/73/1 46/65/1 11/74/1
f 11/74/1 53/66/1 12/75/1
f 12/75/1 60/67/1 14/76/1
f 14/76/1 67/68/1 13/77/1
f 13/77/1 74/69/1 10/78/1
f 10/78/1 81/70/1 6/79/1
f 81/70/1 8/80/1 6/79/1
f 2/1/1 4/81/1 33/2/1
f 33/2/1 4/81/1 28/4/1
f 40/5/1 28/4/1 31/6/1
f 47/7/1 31/6/1 32/8/1
f 54/9/1 32/8/1 30/10/1
f 61/11/1 30/10/1 29/12/1
f 68/13/1 29/12/1 27/14/1
f 75/15/1 27/14/1 7/16/1
f 21/3/1 33/2/1 34/18/1
f 33/2/1 40/5/1 41/20/1
f 40/5/1 47/7/1 48/21/1
f 48/21/1 47/7/1 54/9/1
f 55/22/1 54/9/1 61/11/1
f 62/23/1 61/11/1 68/13/1
f 69/24/1 68/13/1 75/15/1
f 75/15/1 5/17/1 16/26/1
f 23/19/1 34/18/1 35/27/1
f 34/18/1 41/20/1 42/29/1
f 41/20/1 48/21/1 49/30/1
f 49/30/1 48/21/1 55/22/1
f 56/31/1 55/22/1 62/23/1
f 63/32/1 62/23/1 69/24/1
f 70/33/1 69/24/1 76/25/1
f 76/25/1 16/26/1 19/35/1
f 24/28/1 35/27/1 36/36/1
f 35/27/1 42/29/1 43/38/1
f 42/29/1 49/30/1 50/39/1
f 49/30/1 56/31/1 57/40/1
f 57/40/1 56/31/1 63/32/1
f 63/32/1 70/33/1 71/42/1
f 70/33/1 77/34/1 78/43/1
f 77/34/1 19/35/1 20/44/1
f 26/37/1 36/36/1 37/45/1
f 36/36/1 43/38/1 44/47/1
f 43/38/1 50/39/1 51/48/1
f 51/48/1 50/39/1 57/40/1
f 57/40/1 64/41/1 65/50/1
f 64/41/1 71/42/1 72/51/1
f 71/42/1 78/43/1 79/52/1
f 78/43/1 20/44/1 18/53/1
f 25/46/1 37/45/1 38/54/1
f 38/54/1 37/45/1 44/47/1
f 45/56/1 44/47/1 51/48/1
f 52/57/1 51/48/1 58/49/1
f 59/58/1 58/49/1 65/50/1
f 65/50/1 72/51/1 73/60/1
f 72/51/1 79/52/1 80/61/1
f 79/52/1 18/53/1 17/62/1
f 22/55/1 38/54/1 39/63/1
f 39/63/1 38/54/1 45/56/1
f 46/65/1 45/56/1 52/57/1
f 53/66/1 52/57/1 59/58/1
f 60/67/1 59/58/1 66/59/1
f 66/59/1 73/60/1 74/69/1
f 73/60/1 80/61/1 81/70/1
f 80/61/1 17/62/1 15/71/1
f 1/72/1 3/64/1 39/63/1
f 9/73/1 39/63/1 46/65/1
f 11/74/1 46/65/1 53/66/1
f 12/75/1 53/66/1 60/67/1
f 14/76/1 60/67/1 67/68/1
f 13/77/1 67/68/1 74/69/1
f 10/78/1 74/69/1 81/70/1
f 81/70/1 15/71/1 8/80/1
